<svg width="1484" height="679" viewBox="0 0 1484 679" fill="none" xmlns="http://www.w3.org/2000/svg">
<g id="Frame" clip-path="url(#clip0_1431_35)">
<path id="Vector" d="M1154.02 164.4L1165.52 156.9C1185.72 128.1 1170.92 46.6996 1168.82 37C1184.72 43.8 1215.12 47.8996 1232.42 52.1996L1234.42 99.8C1230.02 128.3 1230.02 155.7 1217.42 180.1C1188.52 229.6 1117.32 227 1081.02 187.8C1047.52 144.8 1062.82 81 1078.32 33C1086.92 32.9999 1118.42 36.7007 1140.12 36.7C1135.91 78.432 1117.62 128.532 1130.31 156.9C1134.5 166.259 1140.12 164.4 1140.12 164.4C1140.12 164.4 1146.62 166.3 1154.02 164.4Z" fill="#FFC0D6"/>
<path id="Vector_2" d="M275.001 135.8C284.101 136.9 300.601 127 304.801 137.6C312.801 182.5 314.801 228.1 326.301 272.4C397.001 320.2 356.301 164.1 359.701 131.5C376.601 130 393.501 127.3 410.401 124.8C417.301 170.2 416.101 217.3 421.701 263.2C428.901 310.9 324.901 344.2 296.201 317.9C282.601 298.2 270.701 275.1 266.501 251.9C266.701 229.4 246.301 132.6 275.001 135.8Z" fill="#F7FFDF"/>
<path id="Vector_3" d="M1074.57 347.502C1094.07 345.002 1116.07 338.202 1114.07 367.402C1110.17 437.102 1102.67 506.702 1094.37 576.002C1086.37 614.602 1186.57 581.002 1194.27 606.102C1193.87 619.702 1200.67 642.902 1181.87 646.002C1142.87 646.302 1104.17 642.902 1065.97 634.802C1010.37 634.602 1043.27 557.002 1047.57 521.202C1061.07 464.002 1060.87 404.902 1074.57 347.502Z" fill="#FFC0D6"/>
<path id="Vector_4" d="M539.499 475.6C551.599 484.2 580.199 485.1 576.699 504.5C562.999 537.5 549.899 570.7 533.899 602.6C509.799 663.5 436.299 654.9 407.199 607.6C380.899 557.8 414.299 505.4 423.899 455.5C425.299 450.8 424.599 442.3 435.099 447.6C443.899 451.8 455.499 449.7 464.799 453.4C493.699 461.8 450.399 521.5 451.499 544.8C448.299 565.2 459.099 585.7 478.999 589.3C520.799 583 521.399 508.3 539.499 475.6Z" fill="#F7FFDF"/>
<path id="Vector_5" d="M126.9 60.5996C143.5 80.6996 156.7 110.4 115.2 112.2C64.3004 94.0996 159.2 236.1 160.3 259.8C158.3 274.8 134.1 271.3 122.9 276.7C100.3 245.1 64.1004 147.5 55.4004 123.6C54.4004 120.8 51.1004 119.4 48.4004 120.7L21.0004 133.5C21.0004 133.5 6.90039 104.6 -0.0996094 90.5996C42.3004 80.3996 84.0004 67.8996 126.9 60.5996Z" fill="#FFC0D6"/>
<path id="Vector_6" d="M1037.2 204C1065.8 194.2 1053 224.6 1064.1 232.1C1065.2 232.9 1064 237.1 1063.8 239.8C1026.9 248.1 995.199 286.2 956.899 280.8C942.899 249.9 852.399 109.9 879.999 90.9C887.899 88.5 906.299 80.5 912.899 84.4C930.599 124.6 947.199 165.2 964.099 205.8C975.899 247 1013 215.5 1037.2 204Z" fill="#F7FFDF"/>
<path id="Vector_7" d="M1480.8 213.3C1494.9 240.3 1449.7 240.1 1435.9 231.9C1426 209.8 1423.2 184.6 1410.4 163.8C1395.4 178 1416 236 1383.8 223C1368.3 213.8 1344.2 171.2 1326.7 180.8C1319.4 199.8 1334 248.1 1303.1 245.3C1290.4 244.6 1270.1 251.7 1265.3 235C1265.4 199.6 1255.2 158.9 1262.6 125.8C1291.1 121.2 1320.6 106.8 1349.4 116.3C1354.7 117.6 1363.7 140.3 1367.6 125.8C1369.9 110 1376.2 100 1394.8 99.5003C1414.6 102.9 1445.3 81.0003 1458.9 96.9003L1459 97.0003C1470 134.9 1470.7 175.3 1480.8 213.3Z" fill="#F7FFDF"/>
<path id="Vector_8" d="M1343.8 602.9C1351.4 568.1 1319.9 574.1 1296.1 568.4C1279.2 577.5 1292.7 621.4 1245.5 610.5C1221.7 601.5 1240.8 585.9 1244.2 576.3C1262.1 529.1 1282.3 482.4 1306.3 437.8C1327.7 384.9 1332.4 446.9 1343.9 470.1C1368.4 513.7 1379.7 563.4 1399.5 609C1400 609.6 1400.1 610.3 1400.3 610.9C1391.8 622.9 1378.5 620.3 1365.4 619.4C1351.2 620.1 1342.4 619 1343.8 602.9ZM1325.7 528C1334.7 519.4 1328.3 518 1323.8 510.9C1316.1 517.9 1318.2 520.1 1325.7 528ZM1307.3 445.1C1308.3 444 1308.6 443.8 1307.9 442.7C1307 443.4 1306.8 443.7 1307.3 445.1Z" fill="#FFC0D6"/>
<path id="Vector_9" d="M642.799 286.7C606.799 310.2 617.399 164.9 588.699 222.1C581.999 236.9 571.799 251 567.499 266.5C562.099 287.3 547.399 279.6 535.099 279.4C516.299 279.2 521.799 267.1 525.499 257.3C541.999 214.5 559.699 172.2 571.099 127.8C581.499 110.2 605.799 121.9 621.599 124.5C641.999 127.5 630.299 190.7 653.799 171.7C678.599 131.3 676.299 125.5 725.399 133.9C750.099 129.4 747.999 145.1 747.099 161.2C740.299 188.1 751.799 295.8 730.099 302.5C717.199 297.8 693.899 302.2 688.699 287.7C689.099 258.3 700.899 224.5 683.599 198.4C665.999 225.7 656.499 257.3 642.799 286.7ZM685.899 195.7L686.099 196.1C686.199 195.9 686.399 195.7 685.899 195.7Z" fill="#FFC0D6"/>
<path id="Vector_10" d="M123.5 462.4C126.1 444.1 123.1 423.2 152.8 427.9C200 431.7 248.9 432.3 296.2 429C330.6 422.8 306.8 457.8 309.4 474.1C309.4 511.2 268.5 488.8 246.8 499.1C229.5 523.9 248.2 607.5 228 626.1C213.6 625.7 187.7 637.9 181.4 619.4C183.2 582.3 186.3 545.3 187.9 508.2C179.1 468 99.6002 522.6 123.5 462.4Z" fill="#FFC0D6"/>
<path id="Vector_11" d="M768.2 465.1C773.5 461.4 778.6 454.9 784.3 454.4C800.1 455.8 828.6 446.7 838.8 460.5C840.6 500.7 853.2 545.8 848.5 583.9C835.2 583.2 816.9 593.5 806.9 583C803.4 562.5 806.3 539.8 798.6 520.6C759.5 568.5 787.4 621.8 732.1 533.1C696.2 488.9 728.4 586.6 715.5 600.4C696.9 601.1 672.4 615.3 672.7 585.3C670.4 564.1 669.5 542.8 667 521.6C668.3 506.7 652.6 478.5 662.8 468.4C679 466.7 695.3 466.5 711.3 463.9C729.8 461.5 730.7 479.7 740.5 487.7C766 520.8 763.9 487.3 768.2 465.1Z" fill="#F7FFDF"/>
<path id="Vector_12" d="M306.6 99.0002C346 112.7 343.5 106.7 324.1 74.2002C356.1 106.3 343 123.3 306.6 99.0002Z" fill="#FFC0D6"/>
<path id="Vector_13" d="M306.6 98.9996C269.7 86.5996 295.7 79.3996 313.2 60.5996C332.1 85.7996 360.6 121.2 306.6 98.9996Z" fill="#F7FFDF"/>
<path id="Vector_14" d="M503.4 421.1C526.2 456.1 527.9 449.7 532.5 412.2C538.2 457.1 517.4 462.6 503.4 421.1Z" fill="#FFC0D6"/>
<path id="Vector_15" d="M503.4 421.1C481.8 388.8 506.7 398.9 532.1 394.7C531.7 426.3 532.6 471.7 503.4 421.1Z" fill="#F7FFDF"/>
</g>
<defs>
<clipPath id="clip0_1431_35">
<rect width="1483.4" height="678.5" fill="white"/>
</clipPath>
</defs>
</svg>
