<svg width="414" height="166" viewBox="0 0 414 166" fill="none" xmlns="http://www.w3.org/2000/svg">
<path d="M38.688 80.128C38.688 81.9307 38.792 83.2133 39 83.976C39.2773 84.7387 39.832 85.432 40.664 86.056C41.6347 86.8187 42.328 87.5467 42.744 88.24C43.16 88.9333 43.368 89.6613 43.368 90.424C43.368 93.4747 40.56 95 34.944 95H26.832C21.216 95 18.408 93.4747 18.408 90.424C18.408 89.6613 18.616 88.9333 19.032 88.24C19.448 87.5467 20.1413 86.8187 21.112 86.056C21.944 85.432 22.464 84.7387 22.672 83.976C22.9493 83.2133 23.088 81.9307 23.088 80.128V33.848C23.088 30.5893 22.3253 28.96 20.8 28.96H20.28C18.408 28.96 16.6053 29.792 14.872 31.456C13.208 33.12 11.7867 35.512 10.608 38.632C9.63733 41.1973 8.528 43.208 7.28 44.664C6.10133 46.0507 4.85333 46.744 3.536 46.744C2.42667 46.744 1.664 46.0507 1.248 44.664C0.832 43.208 0.762667 40.4347 1.04 36.344C1.17867 33.7787 1.38667 31.6293 1.664 29.896C2.01067 28.0933 2.42667 26.6373 2.912 25.528C3.46667 24.3493 4.12533 23.5173 4.888 23.032C5.65067 22.4773 6.58667 22.2 7.696 22.2H54.08C56.2987 22.2 57.8933 23.3093 58.864 25.528C59.8347 27.7467 60.4587 31.56 60.736 36.968C60.944 40.7813 60.8747 43.3813 60.528 44.768C60.1813 46.0853 59.4187 46.744 58.24 46.744C56.9227 46.744 55.64 46.0507 54.392 44.664C53.144 43.2773 52 41.2667 50.96 38.632C49.712 35.3733 48.256 32.9467 46.592 31.352C44.9973 29.7573 43.2987 28.96 41.496 28.96H40.976C39.4507 28.96 38.688 30.5893 38.688 33.848V80.128ZM68.406 37.072C68.406 35.2 68.2673 33.9173 67.99 33.224C67.782 32.4613 67.262 31.768 66.43 31.144C65.4593 30.3813 64.766 29.6533 64.35 28.96C63.934 28.2667 63.726 27.5387 63.726 26.776C63.726 23.7253 66.534 22.2 72.15 22.2H80.262C85.878 22.2 88.686 23.7253 88.686 26.776C88.686 27.5387 88.478 28.2667 88.062 28.96C87.646 29.6533 86.9527 30.3813 85.982 31.144C85.15 31.768 84.5953 32.4613 84.318 33.224C84.11 33.9173 84.006 35.2 84.006 37.072V71.496C84.006 73.6453 84.318 75.656 84.942 77.528C85.566 79.3307 86.4327 80.8907 87.542 82.208C88.7207 83.456 90.1073 84.4613 91.702 85.224C93.366 85.9173 95.1687 86.264 97.11 86.264C101.478 86.264 104.841 84.4613 107.198 80.856C109.555 77.2507 110.734 72.016 110.734 65.152C110.734 60.784 110.318 56.6587 109.486 52.776C108.654 48.824 107.718 45.2187 106.678 41.96C105.638 38.7013 104.702 35.8587 103.87 33.432C103.038 30.936 102.622 28.96 102.622 27.504C102.622 23.968 105.187 22.2 110.318 22.2H116.87C119.297 22.2 121.169 22.616 122.486 23.448C123.803 24.28 124.462 25.4587 124.462 26.984C124.462 28.648 123.422 29.9653 121.342 30.936C120.579 31.2827 119.921 31.6987 119.366 32.184C118.881 32.6 118.499 33.1547 118.222 33.848C117.945 34.472 117.737 35.304 117.598 36.344C117.529 37.3147 117.494 38.528 117.494 39.984V71.288C117.494 74.9627 116.87 78.3253 115.622 81.376C114.374 84.4267 112.641 87.0613 110.422 89.28C108.203 91.4293 105.499 93.0933 102.31 94.272C99.19 95.4507 95.6887 96.04 91.806 96.04C88.27 96.04 85.046 95.5547 82.134 94.584C79.2913 93.544 76.83 92.1227 74.75 90.32C72.7393 88.5173 71.1793 86.368 70.07 83.872C68.9607 81.3067 68.406 78.464 68.406 75.344V37.072ZM99.398 17.52C98.0807 17.52 96.8327 16.8267 95.654 15.44L84.734 3.06399C84.318 2.64799 84.11 2.16266 84.11 1.60799C84.11 0.567995 84.734 0.0479951 85.982 0.0479951H90.766C91.6673 0.0479951 92.2913 0.221328 92.638 0.567995C92.9847 0.845328 93.4007 1.36533 93.886 2.12799L102.622 15.648C102.969 16.1333 103.038 16.584 102.83 17C102.622 17.3467 102.102 17.52 101.27 17.52H99.398ZM165.336 60.888C165.683 61.6507 166.03 62.032 166.376 62.032C166.723 62.032 167.07 61.6507 167.416 60.888L181.768 26.36C182.878 23.5867 184.923 22.2 187.904 22.2H191.752C194.595 22.2 196.71 22.616 198.096 23.448C199.483 24.28 200.176 25.3893 200.176 26.776C200.176 27.5387 199.968 28.2667 199.552 28.96C199.136 29.6533 198.443 30.3813 197.472 31.144C196.64 31.768 196.086 32.4613 195.808 33.224C195.6 33.9867 195.496 35.2693 195.496 37.072V80.128C195.496 81.9307 195.6 83.2133 195.808 83.976C196.086 84.7387 196.64 85.432 197.472 86.056C198.443 86.8187 199.136 87.5467 199.552 88.24C199.968 88.9333 200.176 89.6613 200.176 90.424C200.176 93.4747 197.264 95 191.44 95H183.952C178.128 95 175.216 93.4747 175.216 90.424C175.216 89.6613 175.424 88.9333 175.84 88.24C176.256 87.5467 176.95 86.8187 177.92 86.056C178.752 85.432 179.272 84.7387 179.48 83.976C179.758 83.2133 179.896 81.9307 179.896 80.128V53.192C179.896 51.32 179.55 51.2507 178.856 52.984L167.104 81.064C166.827 81.6187 166.272 82.3467 165.44 83.248C164.678 84.1493 163.395 84.6 161.592 84.6C159.235 84.6 157.536 83.4213 156.496 81.064L144.64 52.672C143.947 50.9387 143.6 51.008 143.6 52.88C143.6 58.8427 144.016 63.9733 144.848 68.272C145.68 72.5013 146.582 76.1067 147.552 79.088C148.592 82 149.528 84.3573 150.36 86.16C151.192 87.9627 151.608 89.384 151.608 90.424C151.608 91.8107 150.811 92.92 149.216 93.752C147.691 94.584 145.542 95 142.768 95H137.568C134.795 95 132.611 94.584 131.016 93.752C129.491 92.92 128.728 91.7413 128.728 90.216C128.728 88.6213 129.942 87.304 132.368 86.264C134.171 85.5013 135.35 84.5307 135.904 83.352C136.528 82.1733 136.84 80.128 136.84 77.216V39.984C136.84 37.072 136.528 35.0267 135.904 33.848C135.35 32.6693 134.171 31.6987 132.368 30.936C131.12 30.3813 130.184 29.8267 129.56 29.272C129.006 28.648 128.728 27.8507 128.728 26.88C128.728 25.424 129.456 24.28 130.912 23.448C132.438 22.616 134.656 22.2 137.568 22.2H144.744C147.795 22.2 149.875 23.5867 150.984 26.36L165.336 60.888ZM246.521 80.232C246.521 82.7973 246.729 84.7733 247.145 86.16C247.561 87.5467 248.601 88.24 250.265 88.24H250.993C252.657 88.24 254.113 88.1013 255.361 87.824C256.609 87.5467 257.683 87.096 258.585 86.472C259.555 85.7787 260.422 84.8427 261.185 83.664C262.017 82.4853 262.849 81.0293 263.681 79.296C264.859 76.6613 265.969 74.7893 267.009 73.68C268.049 72.5013 269.158 71.912 270.337 71.912C271.723 71.912 272.625 72.7787 273.041 74.512C273.526 76.2453 273.526 79.192 273.041 83.352C272.555 87.6507 271.793 90.6667 270.753 92.4C269.782 94.1333 268.222 95 266.073 95H235.497C229.326 95 226.241 93.4747 226.241 90.424C226.241 89.6613 226.449 88.9333 226.865 88.24C227.281 87.5467 227.974 86.8187 228.945 86.056C229.777 85.432 230.297 84.7387 230.505 83.976C230.782 83.2133 230.921 81.9307 230.921 80.128V37.072C230.921 35.2693 230.782 33.9867 230.505 33.224C230.297 32.4613 229.777 31.768 228.945 31.144C227.974 30.3813 227.281 29.6533 226.865 28.96C226.449 28.2667 226.241 27.5387 226.241 26.776C226.241 23.7253 229.153 22.2 234.977 22.2H243.505C249.329 22.2 252.241 23.7253 252.241 26.776C252.241 27.6773 251.998 28.4747 251.513 29.168C251.097 29.8613 250.334 30.5893 249.225 31.352C248.115 32.0453 247.387 32.808 247.041 33.64C246.694 34.4027 246.521 35.72 246.521 37.592V80.232ZM281.487 37.072C281.487 35.2 281.348 33.9173 281.071 33.224C280.863 32.4613 280.343 31.768 279.511 31.144C278.54 30.3813 277.847 29.6533 277.431 28.96C277.015 28.2667 276.807 27.5387 276.807 26.776C276.807 23.7253 279.615 22.2 285.231 22.2H293.343C298.959 22.2 301.767 23.7253 301.767 26.776C301.767 27.5387 301.559 28.2667 301.143 28.96C300.727 29.6533 300.033 30.3813 299.063 31.144C298.231 31.768 297.676 32.4613 297.399 33.224C297.191 33.9173 297.087 35.2 297.087 37.072V71.496C297.087 73.6453 297.399 75.656 298.023 77.528C298.647 79.3307 299.513 80.8907 300.623 82.208C301.801 83.456 303.188 84.4613 304.783 85.224C306.447 85.9173 308.249 86.264 310.191 86.264C314.559 86.264 317.921 84.4613 320.279 80.856C322.636 77.2507 323.815 72.016 323.815 65.152C323.815 60.784 323.399 56.6587 322.567 52.776C321.735 48.824 320.799 45.2187 319.759 41.96C318.719 38.7013 317.783 35.8587 316.951 33.432C316.119 30.936 315.703 28.96 315.703 27.504C315.703 23.968 318.268 22.2 323.399 22.2H329.951C332.377 22.2 334.249 22.616 335.567 23.448C336.884 24.28 337.543 25.4587 337.543 26.984C337.543 28.648 336.503 29.9653 334.423 30.936C333.66 31.2827 333.001 31.6987 332.447 32.184C331.961 32.6 331.58 33.1547 331.303 33.848C331.025 34.472 330.817 35.304 330.679 36.344C330.609 37.3147 330.575 38.528 330.575 39.984V71.288C330.575 74.9627 329.951 78.3253 328.703 81.376C327.455 84.4267 325.721 87.0613 323.503 89.28C321.284 91.4293 318.58 93.0933 315.391 94.272C312.271 95.4507 308.769 96.04 304.887 96.04C301.351 96.04 298.127 95.5547 295.215 94.584C292.372 93.544 289.911 92.1227 287.831 90.32C285.82 88.5173 284.26 86.368 283.151 83.872C282.041 81.3067 281.487 78.464 281.487 75.344V37.072ZM378.313 60.888C378.66 61.6507 379.006 62.032 379.353 62.032C379.7 62.032 380.046 61.6507 380.393 60.888L394.745 26.36C395.854 23.5867 397.9 22.2 400.881 22.2H404.729C407.572 22.2 409.686 22.616 411.073 23.448C412.46 24.28 413.153 25.3893 413.153 26.776C413.153 27.5387 412.945 28.2667 412.529 28.96C412.113 29.6533 411.42 30.3813 410.449 31.144C409.617 31.768 409.062 32.4613 408.785 33.224C408.577 33.9867 408.473 35.2693 408.473 37.072V80.128C408.473 81.9307 408.577 83.2133 408.785 83.976C409.062 84.7387 409.617 85.432 410.449 86.056C411.42 86.8187 412.113 87.5467 412.529 88.24C412.945 88.9333 413.153 89.6613 413.153 90.424C413.153 93.4747 410.241 95 404.417 95H396.929C391.105 95 388.193 93.4747 388.193 90.424C388.193 89.6613 388.401 88.9333 388.817 88.24C389.233 87.5467 389.926 86.8187 390.897 86.056C391.729 85.432 392.249 84.7387 392.457 83.976C392.734 83.2133 392.873 81.9307 392.873 80.128V53.192C392.873 51.32 392.526 51.2507 391.833 52.984L380.081 81.064C379.804 81.6187 379.249 82.3467 378.417 83.248C377.654 84.1493 376.372 84.6 374.569 84.6C372.212 84.6 370.513 83.4213 369.473 81.064L357.617 52.672C356.924 50.9387 356.577 51.008 356.577 52.88C356.577 58.8427 356.993 63.9733 357.825 68.272C358.657 72.5013 359.558 76.1067 360.529 79.088C361.569 82 362.505 84.3573 363.337 86.16C364.169 87.9627 364.585 89.384 364.585 90.424C364.585 91.8107 363.788 92.92 362.193 93.752C360.668 94.584 358.518 95 355.745 95H350.545C347.772 95 345.588 94.584 343.993 93.752C342.468 92.92 341.705 91.7413 341.705 90.216C341.705 88.6213 342.918 87.304 345.345 86.264C347.148 85.5013 348.326 84.5307 348.881 83.352C349.505 82.1733 349.817 80.128 349.817 77.216V39.984C349.817 37.072 349.505 35.0267 348.881 33.848C348.326 32.6693 347.148 31.6987 345.345 30.936C344.097 30.3813 343.161 29.8267 342.537 29.272C341.982 28.648 341.705 27.8507 341.705 26.88C341.705 25.424 342.433 24.28 343.889 23.448C345.414 22.616 347.633 22.2 350.545 22.2H357.721C360.772 22.2 362.852 23.5867 363.961 26.36L378.313 60.888ZM38.688 149.128C38.688 150.931 38.792 152.213 39 152.976C39.2773 153.739 39.832 154.432 40.664 155.056C41.6347 155.819 42.328 156.547 42.744 157.24C43.16 157.933 43.368 158.661 43.368 159.424C43.368 162.475 40.56 164 34.944 164H26.832C21.216 164 18.408 162.475 18.408 159.424C18.408 158.661 18.616 157.933 19.032 157.24C19.448 156.547 20.1413 155.819 21.112 155.056C21.944 154.432 22.464 153.739 22.672 152.976C22.9493 152.213 23.088 150.931 23.088 149.128V102.848C23.088 99.5893 22.3253 97.96 20.8 97.96H20.28C18.408 97.96 16.6053 98.792 14.872 100.456C13.208 102.12 11.7867 104.512 10.608 107.632C9.63733 110.197 8.528 112.208 7.28 113.664C6.10133 115.051 4.85333 115.744 3.536 115.744C2.42667 115.744 1.664 115.051 1.248 113.664C0.832 112.208 0.762667 109.435 1.04 105.344C1.17867 102.779 1.38667 100.629 1.664 98.896C2.01067 97.0933 2.42667 95.6373 2.912 94.528C3.46667 93.3493 4.12533 92.5173 4.888 92.032C5.65067 91.4773 6.58667 91.2 7.696 91.2H54.08C56.2987 91.2 57.8933 92.3093 58.864 94.528C59.8347 96.7467 60.4587 100.56 60.736 105.968C60.944 109.781 60.8747 112.381 60.528 113.768C60.1813 115.085 59.4187 115.744 58.24 115.744C56.9227 115.744 55.64 115.051 54.392 113.664C53.144 112.277 52 110.267 50.96 107.632C49.712 104.373 48.256 101.947 46.592 100.352C44.9973 98.7573 43.2987 97.96 41.496 97.96H40.976C39.4507 97.96 38.688 99.5893 38.688 102.848V149.128ZM68.406 106.072C68.406 104.2 68.2673 102.917 67.99 102.224C67.782 101.461 67.262 100.768 66.43 100.144C65.4593 99.3813 64.766 98.6533 64.35 97.96C63.934 97.2667 63.726 96.5387 63.726 95.776C63.726 92.7253 66.534 91.2 72.15 91.2H80.262C85.878 91.2 88.686 92.7253 88.686 95.776C88.686 96.5387 88.478 97.2667 88.062 97.96C87.646 98.6533 86.9527 99.3813 85.982 100.144C85.15 100.768 84.5953 101.461 84.318 102.224C84.11 102.917 84.006 104.2 84.006 106.072V140.496C84.006 142.645 84.318 144.656 84.942 146.528C85.566 148.331 86.4327 149.891 87.542 151.208C88.7207 152.456 90.1073 153.461 91.702 154.224C93.366 154.917 95.1687 155.264 97.11 155.264C101.478 155.264 104.841 153.461 107.198 149.856C109.555 146.251 110.734 141.016 110.734 134.152C110.734 129.784 110.318 125.659 109.486 121.776C108.654 117.824 107.718 114.219 106.678 110.96C105.638 107.701 104.702 104.859 103.87 102.432C103.038 99.936 102.622 97.96 102.622 96.504C102.622 92.968 105.187 91.2 110.318 91.2H116.87C119.297 91.2 121.169 91.616 122.486 92.448C123.803 93.28 124.462 94.4587 124.462 95.984C124.462 97.648 123.422 98.9653 121.342 99.936C120.579 100.283 119.921 100.699 119.366 101.184C118.881 101.6 118.499 102.155 118.222 102.848C117.945 103.472 117.737 104.304 117.598 105.344C117.529 106.315 117.494 107.528 117.494 108.984V140.288C117.494 143.963 116.87 147.325 115.622 150.376C114.374 153.427 112.641 156.061 110.422 158.28C108.203 160.429 105.499 162.093 102.31 163.272C99.19 164.451 95.6887 165.04 91.806 165.04C88.27 165.04 85.046 164.555 82.134 163.584C79.2913 162.544 76.83 161.123 74.75 159.32C72.7393 157.517 71.1793 155.368 70.07 152.872C68.9607 150.307 68.406 147.464 68.406 144.344V106.072ZM99.398 86.52C98.0807 86.52 96.8327 85.8267 95.654 84.44L84.734 72.064C84.318 71.648 84.11 71.1627 84.11 70.608C84.11 69.568 84.734 69.048 85.982 69.048H90.766C91.6673 69.048 92.2913 69.2213 92.638 69.568C92.9847 69.8453 93.4007 70.3653 93.886 71.128L102.622 84.648C102.969 85.1333 103.038 85.584 102.83 86C102.622 86.3467 102.102 86.52 101.27 86.52H99.398ZM165.336 129.888C165.683 130.651 166.03 131.032 166.376 131.032C166.723 131.032 167.07 130.651 167.416 129.888L181.768 95.36C182.878 92.5867 184.923 91.2 187.904 91.2H191.752C194.595 91.2 196.71 91.616 198.096 92.448C199.483 93.28 200.176 94.3893 200.176 95.776C200.176 96.5387 199.968 97.2667 199.552 97.96C199.136 98.6533 198.443 99.3813 197.472 100.144C196.64 100.768 196.086 101.461 195.808 102.224C195.6 102.987 195.496 104.269 195.496 106.072V149.128C195.496 150.931 195.6 152.213 195.808 152.976C196.086 153.739 196.64 154.432 197.472 155.056C198.443 155.819 199.136 156.547 199.552 157.24C199.968 157.933 200.176 158.661 200.176 159.424C200.176 162.475 197.264 164 191.44 164H183.952C178.128 164 175.216 162.475 175.216 159.424C175.216 158.661 175.424 157.933 175.84 157.24C176.256 156.547 176.95 155.819 177.92 155.056C178.752 154.432 179.272 153.739 179.48 152.976C179.758 152.213 179.896 150.931 179.896 149.128V122.192C179.896 120.32 179.55 120.251 178.856 121.984L167.104 150.064C166.827 150.619 166.272 151.347 165.44 152.248C164.678 153.149 163.395 153.6 161.592 153.6C159.235 153.6 157.536 152.421 156.496 150.064L144.64 121.672C143.947 119.939 143.6 120.008 143.6 121.88C143.6 127.843 144.016 132.973 144.848 137.272C145.68 141.501 146.582 145.107 147.552 148.088C148.592 151 149.528 153.357 150.36 155.16C151.192 156.963 151.608 158.384 151.608 159.424C151.608 160.811 150.811 161.92 149.216 162.752C147.691 163.584 145.542 164 142.768 164H137.568C134.795 164 132.611 163.584 131.016 162.752C129.491 161.92 128.728 160.741 128.728 159.216C128.728 157.621 129.942 156.304 132.368 155.264C134.171 154.501 135.35 153.531 135.904 152.352C136.528 151.173 136.84 149.128 136.84 146.216V108.984C136.84 106.072 136.528 104.027 135.904 102.848C135.35 101.669 134.171 100.699 132.368 99.936C131.12 99.3813 130.184 98.8267 129.56 98.272C129.006 97.648 128.728 96.8507 128.728 95.88C128.728 94.424 129.456 93.28 130.912 92.448C132.438 91.616 134.656 91.2 137.568 91.2H144.744C147.795 91.2 149.875 92.5867 150.984 95.36L165.336 129.888ZM246.521 149.232C246.521 151.797 246.729 153.773 247.145 155.16C247.561 156.547 248.601 157.24 250.265 157.24H250.993C252.657 157.24 254.113 157.101 255.361 156.824C256.609 156.547 257.683 156.096 258.585 155.472C259.555 154.779 260.422 153.843 261.185 152.664C262.017 151.485 262.849 150.029 263.681 148.296C264.859 145.661 265.969 143.789 267.009 142.68C268.049 141.501 269.158 140.912 270.337 140.912C271.723 140.912 272.625 141.779 273.041 143.512C273.526 145.245 273.526 148.192 273.041 152.352C272.555 156.651 271.793 159.667 270.753 161.4C269.782 163.133 268.222 164 266.073 164H235.497C229.326 164 226.241 162.475 226.241 159.424C226.241 158.661 226.449 157.933 226.865 157.24C227.281 156.547 227.974 155.819 228.945 155.056C229.777 154.432 230.297 153.739 230.505 152.976C230.782 152.213 230.921 150.931 230.921 149.128V106.072C230.921 104.269 230.782 102.987 230.505 102.224C230.297 101.461 229.777 100.768 228.945 100.144C227.974 99.3813 227.281 98.6533 226.865 97.96C226.449 97.2667 226.241 96.5387 226.241 95.776C226.241 92.7253 229.153 91.2 234.977 91.2H243.505C249.329 91.2 252.241 92.7253 252.241 95.776C252.241 96.6773 251.998 97.4747 251.513 98.168C251.097 98.8613 250.334 99.5893 249.225 100.352C248.115 101.045 247.387 101.808 247.041 102.64C246.694 103.403 246.521 104.72 246.521 106.592V149.232ZM293.759 143.304C293.759 143.928 293.759 144.552 293.759 145.176C293.759 150.168 294.764 153.669 296.775 155.68C297.884 156.789 298.439 158.037 298.439 159.424C298.439 162.475 295.839 164 290.639 164H283.359C278.159 164 275.559 162.475 275.559 159.424C275.559 157.76 276.217 156.269 277.535 154.952C279.823 152.456 282.145 147.776 284.503 140.912L290.535 122.816C294.209 111.861 295.596 103.819 294.695 98.688C294.625 98.48 294.556 98.168 294.487 97.752C294.417 97.2667 294.383 96.7467 294.383 96.192C294.383 92.864 296.185 91.2 299.791 91.2H308.215C310.711 91.2 312.409 92.4827 313.311 95.048L331.511 148.608C332.481 151.52 333.833 153.739 335.567 155.264C336.953 156.373 337.647 157.587 337.647 158.904C337.647 158.973 337.647 159.077 337.647 159.216C337.3 162.405 333.452 164 326.103 164H322.775C316.535 164 313.415 162.336 313.415 159.008C313.415 157.829 313.796 156.789 314.559 155.888C315.46 154.917 315.911 153.739 315.911 152.352C315.911 151.451 315.737 150.445 315.391 149.336L313.311 143.2C312.825 141.536 311.681 140.704 309.879 140.704H296.567C294.764 140.704 293.828 141.571 293.759 143.304ZM307.695 134.464C309.428 134.464 310.017 133.632 309.463 131.968L302.495 111.584C301.94 109.781 301.385 109.781 300.831 111.584C298.335 119.28 296.497 126.04 295.319 131.864C294.972 133.597 295.665 134.464 297.399 134.464H307.695Z" fill="#140307"/>
</svg>
